<svg id="Capa_1" enable-background="new 0 0 512.018 512.018" height="512" viewBox="0 0 512.018 512.018" width="512" xmlns="http://www.w3.org/2000/svg"><g><g><g><path d="m504.518 306.342c4.142 0 7.5-3.357 7.5-7.5v-274.18c0-9.194-7.48-16.675-16.675-16.675h-427.685c-9.195 0-16.675 7.48-16.675 16.675v65.329h-33.85-.44c-9.205 0-16.693 7.488-16.693 16.693v377.026c0 11.205 9.116 20.32 20.321 20.32h421.686c11.205 0 20.321-9.115 20.321-20.32v-62.793h29.405c11.185 0 20.284-9.1 20.284-20.284v-67.124c0-4.143-3.358-7.5-7.5-7.5s-7.5 3.357-7.5 7.5v67.124c0 2.914-2.371 5.284-5.284 5.284h-29.405v-299.233c0-9.204-7.488-16.692-16.692-16.692h-302.875c-4.142 0-7.5 3.357-7.5 7.5s3.358 7.5 7.5 7.5h302.875c.933 0 1.692.759 1.692 1.692v28.337h-381.346v-30.029h42.174c4.142 0 7.5-3.357 7.5-7.5s-3.358-7.5-7.5-7.5h-42.174v-22.049h431.035v230.898c.001 4.143 3.358 7.501 7.501 7.501zm-489.078-199.658c0-.934.759-1.692 1.692-1.692h33.85v30.029h-35.542zm431.889 43.349v333.677c0 2.934-2.387 5.32-5.321 5.32h-421.687c-2.934 0-5.321-2.387-5.321-5.32v-333.677zm-345.512-97.102h-35.835v-28.235c0-.918.748-1.665 1.666-1.665h34.169zm15 0v-29.944h378.525c.923 0 1.675.751 1.675 1.675v28.269z"/><path d="m290.165 239.579h89.483c4.142 0 7.5-3.357 7.5-7.5s-3.358-7.5-7.5-7.5h-89.483c-4.142 0-7.5 3.357-7.5 7.5s3.358 7.5 7.5 7.5z"/><path d="m255.645 298.438h158.523c4.142 0 7.5-3.357 7.5-7.5s-3.358-7.5-7.5-7.5h-158.523c-4.142 0-7.5 3.357-7.5 7.5s3.358 7.5 7.5 7.5z"/><path d="m255.645 337.115h158.523c4.142 0 7.5-3.357 7.5-7.5s-3.358-7.5-7.5-7.5h-158.523c-4.142 0-7.5 3.357-7.5 7.5s3.358 7.5 7.5 7.5z"/><path d="m255.645 375.794h158.523c4.142 0 7.5-3.357 7.5-7.5s-3.358-7.5-7.5-7.5h-158.523c-4.142 0-7.5 3.357-7.5 7.5s3.358 7.5 7.5 7.5z"/><path d="m255.645 414.473h158.523c4.142 0 7.5-3.357 7.5-7.5s-3.358-7.5-7.5-7.5h-158.523c-4.142 0-7.5 3.357-7.5 7.5s3.358 7.5 7.5 7.5z"/><path d="m135.44 414.306c52.262 0 94.78-42.519 94.78-94.78s-42.518-94.779-94.78-94.779-94.78 42.518-94.78 94.779 42.519 94.78 94.78 94.78zm0-174.56c43.991 0 79.78 35.789 79.78 79.779 0 43.991-35.789 79.78-79.78 79.78s-79.78-35.789-79.78-79.78c.001-43.99 35.79-79.779 79.78-79.779z"/><path d="m110.19 363.708c3.052 3.052 7.06 4.578 11.069 4.577 4.008 0 8.018-1.526 11.069-4.577l54.681-54.68c4.235-4.234 6.567-9.863 6.567-15.852s-2.332-11.618-6.566-15.852-9.864-6.566-15.852-6.566-11.618 2.331-15.852 6.565l-34.045 34.046-5.687-5.687c-8.741-8.74-22.963-8.739-31.704.001-8.74 8.74-8.74 22.963 0 31.704zm-15.713-47.417c1.446-1.446 3.346-2.169 5.246-2.169 1.899 0 3.799.723 5.245 2.168l10.381 10.383c1.579 1.579 3.678 2.448 5.911 2.448s4.333-.869 5.912-2.448l38.741-38.741c1.401-1.401 3.264-2.173 5.246-2.173 1.981 0 3.844.771 5.245 2.173 1.401 1.4 2.173 3.264 2.173 5.245s-.771 3.844-2.173 5.244l-54.681 54.68c-.255.256-.671.256-.926 0l-26.319-26.318c-2.893-2.893-2.893-7.6-.001-10.492z"/></g></g></g></svg>