<?xml version="1.0" encoding="iso-8859-1"?>
<!-- Generator: Adobe Illustrator 19.0.0, SVG Export Plug-In . SVG Version: 6.00 Build 0)  -->
<svg version="1.1" id="Capa_1" xmlns="http://www.w3.org/2000/svg" xmlns:xlink="http://www.w3.org/1999/xlink" x="0px" y="0px"
	 viewBox="0 0 512 512" style="enable-background:new 0 0 512 512;" xml:space="preserve">
<g>
	<g>
		<path d="M421,271c-5.852,0-11.446,1.123-16.579,3.164C399.211,255.075,381.718,241,361,241c-5.258,0-10.305,0.913-15,2.578V45
			c0-24.813-20.187-45-45-45H91C66.187,0,46,20.187,46,45v392c0,24.813,20.187,45,45,45h66.341
			c2.197,5.198,4.553,10.328,7.076,15.374l3.167,6.334C170.124,508.79,175.318,512,181,512h240c5.682,0,10.875-3.21,13.416-8.292
			l3.168-6.335C456.174,460.194,466,418.569,466,377v-61C466,291.187,445.813,271,421,271z M76,45c0-8.271,6.729-15,15-15h210
			c8.271,0,15,6.729,15,15v15H76V45z M91,452c-8.271,0-15-6.729-15-15v-15h63.828c1.723,10.119,4.02,20.141,6.875,30H91z M136,346
			v31c0,5.002,0.146,10.004,0.429,15H76V90h240v123.575c-4.694-1.665-9.742-2.575-15-2.575c-5.257,0-10.307,0.906-15,2.57V165
			c0-24.813-20.187-45-45-45s-45,20.187-45,45v107.507C161.809,279.476,136,309.782,136,346z M436,377
			c0,36.208-8.391,72.464-24.282,105H190.282C174.391,449.463,166,413.208,166,377v-31c0-19.556,12.539-36.239,30-42.43V377
			c0,8.284,6.716,15,15,15s15-6.716,15-15V165c0-8.271,6.729-15,15-15s15,6.729,15,15v151c0,8.284,6.716,15,15,15s15-6.716,15-15
			v-60c0-8.271,6.729-15,15-15s15,6.729,15,15v60c0,8.284,6.716,15,15,15s15-6.716,15-15v-30c0-8.271,6.729-15,15-15s15,6.729,15,15
			v60c0,8.284,6.716,15,15,15s15-6.716,15-15v-30c0-8.271,6.729-15,15-15s15,6.729,15,15V377z"/>
	</g>
</g>
<g>
</g>
<g>
</g>
<g>
</g>
<g>
</g>
<g>
</g>
<g>
</g>
<g>
</g>
<g>
</g>
<g>
</g>
<g>
</g>
<g>
</g>
<g>
</g>
<g>
</g>
<g>
</g>
<g>
</g>
</svg>
