<svg id="Layer_3" enable-background="new 0 0 64 64" height="512" viewBox="0 0 64 64" width="512" xmlns="http://www.w3.org/2000/svg"><g><path d="m55 1h-46c-.552 0-1 .447-1 1v60c0 .553.448 1 1 1h36c.277 0 .527-.112.708-.294l9.998-9.998c.182-.181.294-.431.294-.708v-50c0-.553-.448-1-1-1zm-11 51v9h-34v-58h44v48h-9c-.552 0-1 .447-1 1zm8.586 1-6.586 6.586v-6.586z"/><path d="m36.414 30h11.586v-2h-12c-.265 0-.52.105-.707.293l-1.846 1.846c-2.274-1.952-5.222-3.139-8.447-3.139-7.168 0-13 5.832-13 13s5.832 13 13 13 13-5.832 13-13c0-3.225-1.187-6.173-3.139-8.447zm-22.414 10c0-5.728 4.402-10.442 10-10.949v21.899c-5.598-.508-10-5.222-10-10.95zm12 10.949v-9.949h9.949c-.477 5.268-4.681 9.472-9.949 9.949zm9.949-11.949h-9.949v-9.949c2.283.207 4.366 1.111 6.034 2.501l-2.741 2.741 1.414 1.414 2.741-2.741c1.391 1.668 2.294 3.751 2.501 6.034z"/><path d="m40 32h8v2h-8z"/><path d="m52 23h-3v-17c0-.553-.448-1-1-1h-8c-.552 0-1 .447-1 1v17h-2v-11c0-.553-.448-1-1-1h-8c-.552 0-1 .447-1 1v11h-2v-5c0-.553-.448-1-1-1h-8c-.552 0-1 .447-1 1v5h-3v2h40zm-11-16h6v16h-6zm-12 6h6v10h-6zm-12 6h6v4h-6z"/></g></svg>